<svg width="42" height="61" viewBox="0 0 42 61" fill="none" xmlns="http://www.w3.org/2000/svg">
<path d="M30.4346 0.208008C32.8442 0.206252 35.1919 0.97352 37.1377 2.39844C39.0835 3.82351 40.527 5.83274 41.2578 8.13477C41.9886 10.4369 41.9687 12.9128 41.2021 15.2031C40.4356 17.4934 38.9619 19.4796 36.9941 20.874L36.7549 21.043L36.9932 21.2139C38.2299 22.0986 39.2772 23.2235 40.0723 24.5215C40.8672 25.8194 41.3945 27.2646 41.6221 28.7705C41.8495 30.2763 41.7724 31.8125 41.3965 33.2881C41.0205 34.764 40.3527 36.1501 39.4326 37.3623C38.5127 38.5743 37.3594 39.5889 36.041 40.3457C34.7224 41.1026 33.2654 41.5866 31.7568 41.7686C30.2484 41.9505 28.7188 41.8269 27.2588 41.4053C25.7987 40.9835 24.4375 40.2723 23.2568 39.3135L22.917 39.0371V49.417C22.9167 51.3693 22.4154 53.2885 21.4609 54.9902C20.5065 56.692 19.1315 58.119 17.4678 59.1338C15.8039 60.1486 13.9073 60.7177 11.9609 60.7852C10.0145 60.8526 8.08333 60.4166 6.35352 59.5195C4.62375 58.6224 3.15349 57.2938 2.08398 55.6621C1.01459 54.0306 0.381919 52.1507 0.24707 50.2031C0.112267 48.2554 0.479924 46.3051 1.31445 44.541C2.14897 42.777 3.4221 41.2578 5.01172 40.1299L5.25098 39.96L5.01172 39.79C2.10968 37.7309 0.216947 34.3376 0.216797 30.5039V30.5029C0.215661 28.6839 0.65008 26.8912 1.4834 25.2754C2.31675 23.6595 3.52472 22.2676 5.00586 21.2168L5.24609 21.0469L5.00586 20.877C3.03815 19.4826 1.56441 17.4963 0.797852 15.2061C0.031298 12.9157 0.0114225 10.4398 0.742188 8.1377C1.47296 5.83563 2.91646 3.82646 4.8623 2.40137C6.80806 0.976429 9.15581 0.209181 11.5654 0.210938L30.4346 0.208008ZM11.5654 41.8799C10.0783 41.8799 8.62416 42.3214 7.3877 43.1494C6.15121 43.9775 5.18829 45.1553 4.61914 46.5322C4.05004 47.9091 3.9006 49.424 4.19043 50.8857C4.4803 52.3476 5.19577 53.6909 6.24707 54.7451C7.29836 55.7993 8.63816 56.5174 10.0967 56.8086C11.5552 57.0998 13.0673 56.9509 14.4414 56.3809C15.8156 55.8108 16.9898 54.8445 17.8164 53.6055C18.6429 52.3665 19.0843 50.9102 19.085 49.4199V41.8799H11.5654ZM11.5654 22.9668C10.578 22.9668 9.59977 23.1613 8.6875 23.54C7.77526 23.9188 6.94621 24.474 6.24805 25.1738C5.54982 25.8737 4.99602 26.7048 4.61816 27.6191C4.24031 28.5335 4.0459 29.5142 4.0459 30.5039C4.04596 31.4935 4.24036 32.4734 4.61816 33.3877C4.99602 34.3021 5.54982 35.1331 6.24805 35.833C6.94621 36.5328 7.77526 37.088 8.6875 37.4668C9.59977 37.8456 10.578 38.04 11.5654 38.04H19.085V22.9668H11.5654ZM30.4258 22.9668C28.4345 22.9691 26.5252 23.7627 25.1172 25.1738C23.7092 26.5852 22.9173 28.4994 22.915 30.4951V30.5117C22.9168 32.0015 23.3587 33.4582 24.1855 34.6963C25.0124 35.9343 26.1869 36.8994 27.5605 37.4688C28.9342 38.0381 30.4455 38.1866 31.9033 37.8955C33.3613 37.6044 34.7009 36.8866 35.752 35.833C36.803 34.7794 37.5182 33.4367 37.8086 31.9756C38.0989 30.5145 37.9508 28.9998 37.3828 27.623C36.8148 26.2464 35.8523 25.069 34.6172 24.2402C33.3821 23.4116 31.9297 22.9686 30.4434 22.9668H30.4258ZM11.5654 4.05078C9.57067 4.05086 7.65744 4.84508 6.24707 6.25879C4.83682 7.67253 4.04492 9.58984 4.04492 11.5889C4.04494 13.5879 4.8368 15.5052 6.24707 16.9189C7.65744 18.3327 9.57067 19.1269 11.5654 19.127H19.085V4.05078H11.5654ZM22.915 19.127H30.4463C32.4396 19.1245 34.3505 18.3288 35.7588 16.915C37.167 15.5012 37.9578 13.5845 37.957 11.5869C37.957 10.5974 37.7626 9.61737 37.3848 8.70312C37.0069 7.78876 36.4531 6.9577 35.7549 6.25781C35.0566 5.55791 34.2268 5.00283 33.3145 4.62402C32.4023 4.24539 31.4248 4.05084 30.4375 4.05078H22.915V19.127Z" fill="#B59888" stroke="#B59888" stroke-width="0.416667"/>
</svg>
