<svg width="56" height="56" viewBox="0 0 56 56" fill="none" xmlns="http://www.w3.org/2000/svg">
<path d="M3 28C3 16.2158 3 10.3211 6.66053 6.66053C10.3211 3 16.2132 3 28 3C39.7842 3 45.6789 3 49.3395 6.66053C53 10.3211 53 16.2132 53 28C53 39.7842 53 45.6789 49.3395 49.3395C45.6789 53 39.7868 53 28 53C16.2158 53 10.3211 53 6.66053 49.3395C3 45.6789 3 39.7868 3 28Z" stroke="#B59888" stroke-width="5" stroke-linecap="round" stroke-linejoin="round"/>
<path d="M30.6313 38.5263L28.3523 31.1579M28.3523 31.1579L26.4471 24.9974C24.8944 19.9816 24.1181 17.4737 22.7365 17.4737C21.355 17.4737 20.5786 19.9816 19.026 24.9974L17.1207 31.1579M28.3523 31.1579H17.1207M14.8418 38.5263L17.1207 31.1579M38.526 38.5263V25.3684M38.526 18.7895V17.4737" stroke="#B59888" stroke-width="5" stroke-linecap="round" stroke-linejoin="round"/>
</svg>
