<svg width="35" height="35" viewBox="0 0 35 35" fill="none" xmlns="http://www.w3.org/2000/svg">
<path d="M17 12.1C18.834 10.226 21.222 9 24 9C26.9174 9 29.7153 10.1589 31.7782 12.2218C33.8411 14.2847 35 17.0826 35 20V35H31V20C31 18.1435 30.2625 16.363 28.9498 15.0503C27.637 13.7375 25.8565 13 24 13C22.1435 13 20.363 13.7375 19.0503 15.0503C17.7375 16.363 17 18.1435 17 20V35H13V10H17V12.1ZM3 6C2.20435 6 1.44129 5.68393 0.87868 5.12132C0.316071 4.55871 0 3.79565 0 3C0 2.20435 0.316071 1.44129 0.87868 0.87868C1.44129 0.316071 2.20435 0 3 0C3.79565 0 4.55871 0.316071 5.12132 0.87868C5.68393 1.44129 6 2.20435 6 3C6 3.79565 5.68393 4.55871 5.12132 5.12132C4.55871 5.68393 3.79565 6 3 6ZM1 10H5V35H1V10Z" fill="#F5F5DB"/>
</svg>
