<svg width="228" height="156" viewBox="0 0 228 156" fill="none" xmlns="http://www.w3.org/2000/svg">
<path d="M1 155H23.6789V36.9806L69.0479 111.159L111.925 39.45L111.131 105.485C118.819 84.8144 133.124 79.11 133.124 79.11C133.124 79.11 132.577 43.0677 135.005 26.8555C150.382 23.2077 178.407 21.6991 190.801 29.0771C201.367 35.3669 211.888 55.6323 193.266 70.0619C184.443 76.8996 149.572 79.11 149.572 79.11C149.572 79.11 125.294 78.2131 114.391 113.024C111.251 123.052 111.925 154.996 111.925 154.996H133.615C133.615 154.996 131.33 116.049 139.861 106.701C152.809 92.5152 167.377 103.864 191.944 97.7617C209.055 94.947 227.208 69.818 226.998 51.1739C226.837 36.883 224.833 15.1016 197.208 4.88257C173.885 -1.59483 109.614 1.4262 108.014 3.98189L67.8302 68.1968L30.5803 1.4262H1.06369L1.03185 78.2112L1 154.996V155Z" fill="black" stroke="black" stroke-miterlimit="10"/>
</svg>
