<svg width="56" height="56" viewBox="0 0 56 56" fill="none" xmlns="http://www.w3.org/2000/svg">
<path d="M53 14.1111V41.8889C53 44.8357 51.8294 47.6619 49.7456 49.7456C47.6619 51.8294 44.8357 53 41.8889 53H14.1111C11.1643 53 8.33811 51.8294 6.25437 49.7456C4.17063 47.6619 3 44.8357 3 41.8889V14.1111C3 11.1643 4.17063 8.33811 6.25437 6.25437C8.33811 4.17063 11.1643 3 14.1111 3H41.8889C44.8357 3 47.6619 4.17063 49.7456 6.25437C51.8294 8.33811 53 11.1643 53 14.1111Z" stroke="#B59888" stroke-width="5" stroke-linecap="round" stroke-linejoin="round"/>
<path d="M14.1104 39.1111V28M14.1104 28V16.8889H19.6659C21.1393 16.8889 22.5524 17.4742 23.5943 18.5161C24.6361 19.558 25.2215 20.971 25.2215 22.4445C25.2215 23.9179 24.6361 25.331 23.5943 26.3728C22.5524 27.4147 21.1393 28 19.6659 28H14.1104ZM41.8881 25.2222C41.0381 23.5195 39.2965 22.4445 37.3937 22.4445H36.3326C35.2275 22.4445 34.1677 22.8835 33.3863 23.6649C32.6049 24.4463 32.1659 25.5061 32.1659 26.6111C32.1659 27.7162 32.6049 28.776 33.3863 29.5574C34.1677 30.3388 35.2275 30.7778 36.3326 30.7778H37.7215C38.8265 30.7778 39.8863 31.2168 40.6677 31.9982C41.4491 32.7796 41.8881 33.8394 41.8881 34.9445C41.8881 36.0495 41.4491 37.1093 40.6677 37.8907C39.8863 38.6722 38.8265 39.1111 37.7215 39.1111H36.6604C35.7272 39.1108 34.8126 38.8508 34.0188 38.3602C33.2251 37.8696 32.5835 37.1678 32.1659 36.3334" stroke="#B59888" stroke-width="5" stroke-linecap="round" stroke-linejoin="round"/>
</svg>
